<?xml version="1.0" encoding="UTF-8"?><svg id="Layer_1" xmlns="http://www.w3.org/2000/svg" viewBox="0 0 40.628 16.597"><defs><style>.cls-1{fill:#fff;}</style></defs><path class="cls-1" d="M.679,9.091v-1.568c0-1.123,.829-2.116,.829-2.116L7.692,.665V2.861L2.888,6.546c-.343,.264-.55,.527-.55,.959v1.586c0,.431,.207,.696,.55,.959l4.804,3.685v2.197L1.509,11.189c-.813-.813-.829-2.098-.829-2.098Z"/><g><path class="cls-1" d="M10.36,4.687h3.111c.849,0,1.452,.251,1.811,.754,.21,.298,.315,.641,.315,1.029,0,.454-.129,.826-.387,1.117-.135,.153-.327,.294-.578,.421,.369,.141,.645,.299,.828,.476,.323,.313,.484,.746,.484,1.299,0,.464-.146,.883-.438,1.259-.438,.562-1.132,.843-2.085,.843h-3.062V4.687Zm2.747,3.042c.416,0,.739-.057,.971-.171,.363-.18,.545-.503,.545-.971s-.193-.787-.58-.95c-.218-.092-.541-.137-.97-.137h-1.758v2.229h1.792Zm.33,3.322c.604,0,1.033-.173,1.291-.52,.161-.219,.242-.483,.242-.794,0-.522-.236-.878-.707-1.067-.251-.102-.582-.152-.995-.152h-1.953v2.533h2.122Z"/><path class="cls-1" d="M20.173,4.687h1.103l2.611,7.197h-1.068l-.729-2.156h-2.847l-.779,2.156h-.999l2.709-7.197Zm1.603,4.248l-1.093-3.181-1.161,3.181h2.254Z"/><path class="cls-1" d="M30.867,5.211c.498,.479,.773,1.025,.828,1.636h-.95c-.105-.464-.316-.831-.633-1.103-.315-.271-.76-.406-1.33-.406-.696,0-1.259,.249-1.687,.748-.429,.498-.643,1.263-.643,2.292,0,.844,.193,1.527,.58,2.053,.387,.524,.963,.787,1.73,.787,.706,0,1.243-.276,1.612-.828,.195-.291,.342-.673,.438-1.146h.951c-.084,.758-.362,1.393-.833,1.905-.565,.618-1.327,.927-2.286,.927-.827,0-1.521-.254-2.083-.76-.739-.671-1.108-1.705-1.108-3.104,0-1.062,.277-1.934,.832-2.613,.601-.739,1.429-1.108,2.484-1.108,.901,0,1.6,.24,2.097,.721Z"/><path class="cls-1" d="M34.027,4.687h.95v3.522l3.601-3.522h1.363l-3.075,2.904,3.139,4.293h-1.275l-2.579-3.617-1.173,1.108v2.509h-.95V4.687Z"/></g></svg>