<?xml version="1.0" encoding="UTF-8"?><svg id="Layer_1" xmlns="http://www.w3.org/2000/svg" viewBox="0 0 144.742 10.384"><defs><style>.cls-1{fill:#fff;}</style></defs><g><path class="cls-1" d="M11.727,10.098H2.616c-.378,0-.749-.105-1.085-.301-.078-.046-.154-.096-.228-.151-.681-.509-1.096-1.367-1.096-2.293V.284H1.523V7.353c0,.463,.188,.957,.568,1.24,.032,.024,.066,.047,.102,.067,.129,.075,.272,.122,.423,.122H11.727v1.316Z"/><path class="cls-1" d="M14.637,.284V10.098h-1.315V.284h1.315Z"/><path class="cls-1" d="M28.012,.286h1.637l-6.252,8.444c-.64,.863-1.484,1.335-2.479,1.37h-4.687V.286h1.315V8.785h3.346c.621-.028,1.079-.341,1.446-.837L28.012,.286Z"/><path class="cls-1" d="M32.556,.284V10.098h-1.315V.284h1.315Z"/><path class="cls-1" d="M34.151,10.098V.284h1.779c1.04,0,1.929,.47,2.597,1.372l4.526,6.113,.13,.175c.389,.526,.876,.839,1.539,.839h.385V.284h1.315V10.098h-1.78c-1.039,0-1.928-.47-2.596-1.372l-4.526-6.112s-.005-.007-.008-.011l-.122-.164c-.39-.526-.876-.839-1.539-.839h-.385V10.098h-1.315Z"/><path class="cls-1" d="M48.016,3.029c0-1.509,1.091-2.745,2.422-2.745h9.755V1.6h-9.755c-.088,0-.172,.013-.25,.036-.551,.164-.856,.854-.856,1.393V7.353c0,.539,.306,1.229,.856,1.393,.078,.023,.162,.036,.25,.036h8.44v-2.934h-6.98v-1.315h8.295v5.565h-9.755c-1.331,0-2.422-1.236-2.422-2.745V3.029Z"/></g><g><path class="cls-1" d="M63.372,10.202h-1.516V3.032c0-1.569,1.131-2.845,2.522-2.845h9.856V1.703h-9.856c-.076,0-.151,.011-.221,.032-.492,.146-.785,.774-.785,1.297v7.169Zm-1.315-.2h1.115V3.032c0-.596,.347-1.316,.928-1.489,.089-.027,.183-.041,.278-.041h9.656V.387h-9.656c-1.28,0-2.322,1.187-2.322,2.645v6.969Zm12.178-4.049h-8.496v-1.516h8.496v1.516Zm-8.296-.2h8.096v-1.115h-8.096v1.115Z"/><path class="cls-1" d="M86.137,10.203h-7.99c-1.391,0-2.522-1.276-2.522-2.845V.189h1.516V7.358c0,.523,.293,1.151,.785,1.297,.071,.021,.146,.032,.222,.032h7.99c.077,0,.15-.01,.223-.032,.491-.146,.784-.775,.784-1.297V.189h1.517V7.358c0,1.569-1.132,2.845-2.523,2.845ZM75.825,.389V7.358c0,1.458,1.042,2.645,2.322,2.645h7.99c1.281,0,2.323-1.187,2.323-2.645V.389h-1.116V7.182c0,.017,0,.034,0,.051v.125c0,.596-.346,1.316-.926,1.489-.092,.027-.183,.041-.28,.041h-7.99c-.096,0-.189-.014-.279-.041-.581-.173-.928-.893-.928-1.489V.389h-1.115Z"/><path class="cls-1" d="M97.006,10.203h-1.512V1.698h-5.433V.187h12.377V1.698h-5.433V10.203Zm-1.312-.2h1.111V1.498h5.433V.387h-11.977V1.498h5.433V10.003Z"/><path class="cls-1" d="M114.341,10.203h-7.99c-1.391,0-2.522-1.276-2.522-2.845V.189h1.516V7.358c0,.523,.293,1.151,.785,1.297,.071,.021,.146,.032,.222,.032h7.99c.077,0,.15-.01,.223-.032,.491-.146,.784-.775,.784-1.297V.189h1.517V7.358c0,1.569-1.132,2.845-2.523,2.845ZM104.029,.389V7.358c0,1.458,1.042,2.645,2.322,2.645h7.99c1.281,0,2.323-1.187,2.323-2.645V.389h-1.116V7.182c0,.017,0,.034,0,.051v.125c0,.596-.346,1.316-.926,1.489-.092,.027-.183,.041-.28,.041h-7.99c-.096,0-.189-.014-.279-.041-.581-.173-.928-.893-.928-1.489V.389h-1.115Z"/><path class="cls-1" d="M130.898,10.202h-1.869l-2.371-3.291h-4.51v-1.516h5.973c.648,0,1.006-.786,1.006-1.33v-1.033c0-.543-.358-1.33-1.006-1.33h-8.339V10.202h-1.516V.187h9.855c1.391,0,2.522,1.277,2.522,2.846v1.033c0,1.402-.928,2.602-2.141,2.812l2.396,3.324Zm-1.766-.2h1.375l-2.367-3.284,.174-.017c1.194-.113,2.129-1.271,2.129-2.636v-1.033c0-1.459-1.042-2.646-2.322-2.646h-9.655V10.001h1.115V1.503h8.54c.787,0,1.207,.889,1.207,1.53v1.033c0,.641-.419,1.53-1.207,1.53h-5.773v1.116h4.412l2.371,3.291Z"/><path class="cls-1" d="M144.575,10.202h-9.855c-1.391,0-2.522-1.276-2.522-2.845V3.032c0-1.569,1.131-2.845,2.522-2.845h9.855V1.703h-9.855c-.076,0-.151,.011-.221,.032-.492,.146-.785,.774-.785,1.297V7.356c0,.523,.293,1.151,.785,1.297,.071,.021,.146,.032,.222,.032h9.855v1.516ZM134.72,.387c-1.28,0-2.322,1.187-2.322,2.645V7.356c0,1.458,1.042,2.645,2.322,2.645h9.655v-1.116h-9.655c-.096,0-.189-.014-.279-.041-.581-.173-.928-.893-.928-1.489V3.032c0-.596,.347-1.316,.928-1.489,.089-.027,.183-.041,.278-.041h9.655V.387h-9.655Zm9.855,5.565h-8.495v-1.516h8.495v1.516Zm-8.295-.2h8.095v-1.115h-8.095v1.115Z"/></g></svg>