<?xml version="1.0" encoding="UTF-8"?><svg id="Layer_1" xmlns="http://www.w3.org/2000/svg" viewBox="0 0 23.043 22.822"><defs><style>.cls-1{fill:#fff;}</style></defs><path class="cls-1" d="M11.28,5.759v2.574l1.39,1.39V4.453c0-.257-.141-.493-.368-.614-.227-.12-.503-.107-.716,.037l-2.845,1.918,1.003,1.003,1.536-1.038Z"/><path class="cls-1" d="M14.711,11.412c0,.111-.007,.22-.023,.329l1.142,1.142c.178-.466,.271-.961,.271-1.471,0-.864-.264-1.691-.764-2.391-.222-.313-.656-.385-.968-.162-.313,.225-.385,.658-.162,.971,.331,.463,.505,1.008,.505,1.582Z"/><path class="cls-1" d="M17.623,11.412c0,.917-.225,1.816-.644,2.62l1.019,1.019c.66-1.091,1.015-2.354,1.015-3.639,0-1.645-.579-3.246-1.631-4.508-.246-.294-.683-.334-.98-.088-.294,.245-.334,.683-.088,.98,.846,1.012,1.309,2.296,1.309,3.616Z"/><path class="cls-1" d="M20.537,11.412c0,1.696-.503,3.345-1.434,4.745l.998,.998c1.184-1.673,1.825-3.677,1.825-5.743,0-2.43-.885-4.77-2.493-6.589-.255-.287-.693-.315-.98-.06-.287,.252-.315,.693-.06,.98,1.383,1.566,2.143,3.577,2.143,5.669Z"/><path class="cls-1" d="M21.842,20.749L2.184,1.09c-.271-.271-.711-.271-.983,0-.271,.271-.271,.712,0,.983L6.461,7.333l-.47,.317H1.81c-.382,0-.695,.313-.695,.695v6.132c0,.382,.313,.695,.695,.695H5.991l5.595,3.774c.118,.079,.252,.121,.389,.121,.111,0,.225-.028,.327-.081,.227-.123,.368-.357,.368-.614v-4.829l8.189,8.189c.136,.136,.314,.204,.491,.204s.356-.068,.491-.204c.271-.271,.271-.712,0-.983ZM5.509,13.782H2.505v-4.742h3.005v4.742Zm5.771,3.28l-4.381-2.956v-5.391l.564-.38,3.817,3.817v4.91Z"/></svg>