<?xml version="1.0" encoding="UTF-8"?><svg id="Layer_1" xmlns="http://www.w3.org/2000/svg" viewBox="0 0 23.043 22.822"><defs><style>.cls-1{fill:#fff;}</style></defs><path class="cls-1" d="M12.309,3.833c-.227-.121-.502-.106-.715,.037l-5.595,3.775H1.818c-.384,0-.695,.311-.695,.695v6.131c0,.384,.311,.695,.695,.695H5.999l5.595,3.775c.117,.079,.253,.119,.389,.119,.112,0,.224-.027,.326-.081,.227-.121,.369-.357,.369-.614V4.447c0-.257-.142-.493-.369-.614ZM2.513,9.035h3.003v4.741H2.513v-4.741Zm8.775,8.023l-4.381-2.956v-5.392l4.381-2.956v11.304Z"/><path class="cls-1" d="M14.376,8.855c-.312,.223-.384,.657-.161,.97,.33,.462,.505,1.009,.505,1.581s-.175,1.119-.505,1.581c-.223,.312-.151,.746,.161,.97,.123,.088,.264,.13,.404,.13,.217,0,.43-.101,.566-.291,.5-.7,.764-1.526,.764-2.389s-.264-1.69-.764-2.39c-.223-.312-.657-.385-.97-.161Z"/><path class="cls-1" d="M17.389,6.9c-.246-.295-.684-.335-.979-.089-.295,.246-.335,.684-.089,.979,.845,1.013,1.31,2.297,1.31,3.616s-.465,2.603-1.31,3.616c-.246,.295-.206,.733,.089,.979,.13,.108,.288,.161,.445,.161,.199,0,.397-.085,.534-.25,1.053-1.262,1.632-2.863,1.632-4.506s-.58-3.244-1.632-4.506Z"/><path class="cls-1" d="M19.443,4.818c-.254-.288-.694-.315-.981-.061-.288,.254-.315,.693-.061,.981,1.383,1.565,2.145,3.578,2.145,5.667s-.762,4.102-2.145,5.667c-.254,.288-.227,.727,.061,.981,.132,.117,.296,.174,.46,.174,.192,0,.384-.079,.521-.235,1.608-1.819,2.493-4.159,2.493-6.587s-.885-4.769-2.493-6.588Z"/></svg>